<?xml version="1.0" encoding="UTF-8" standalone="no"?>
<!DOCTYPE svg PUBLIC "-//W3C//DTD SVG 1.1//EN"
 "http://www.w3.org/Graphics/SVG/1.1/DTD/svg11.dtd">
<!-- Generated by graphviz version 2.43.0 (0)
 -->
<!-- Title: G Pages: 1 -->
<svg width="4056pt" height="996pt"
 viewBox="0.00 0.00 4056.00 996.00" xmlns="http://www.w3.org/2000/svg" xmlns:xlink="http://www.w3.org/1999/xlink">
<g id="graph0" class="graph" transform="scale(1 1) rotate(0) translate(4 992)">
<title>G</title>
<polygon fill="white" stroke="transparent" points="-4,4 -4,-992 4052,-992 4052,4 -4,4"/>
<g id="clust1" class="cluster">
<title>cluster_hero_sprite</title>
<path fill="#e6f1fb" fill-opacity="0.400000" stroke="#b4b2a9" d="M149,-304C149,-304 606,-304 606,-304 612,-304 618,-310 618,-316 618,-316 618,-656 618,-656 618,-662 612,-668 606,-668 606,-668 149,-668 149,-668 143,-668 137,-662 137,-656 137,-656 137,-316 137,-316 137,-310 143,-304 149,-304"/>
<text text-anchor="middle" x="377.5" y="-652.8" font-family="Helvetica,sans-Serif" font-weight="bold" font-size="14.00">Hero sprite rendering</text>
</g>
<g id="clust2" class="cluster">
<title>cluster_tile_decode</title>
<path fill="#e1f5ee" fill-opacity="0.400000" stroke="#b4b2a9" d="M689,-8C689,-8 1584,-8 1584,-8 1590,-8 1596,-14 1596,-20 1596,-20 1596,-454 1596,-454 1596,-460 1590,-466 1584,-466 1584,-466 689,-466 689,-466 683,-466 677,-460 677,-454 677,-454 677,-20 677,-20 677,-14 683,-8 689,-8"/>
<text text-anchor="middle" x="1136.5" y="-450.8" font-family="Helvetica,sans-Serif" font-weight="bold" font-size="14.00">Tile decode / blit primitives</text>
</g>
<g id="clust3" class="cluster">
<title>cluster_monster_entity</title>
<path fill="#faece7" fill-opacity="0.400000" stroke="#b4b2a9" d="M1654,-391C1654,-391 2932,-391 2932,-391 2938,-391 2944,-397 2944,-403 2944,-403 2944,-757 2944,-757 2944,-763 2938,-769 2932,-769 2932,-769 1654,-769 1654,-769 1648,-769 1642,-763 1642,-757 1642,-757 1642,-403 1642,-403 1642,-397 1648,-391 1654,-391"/>
<text text-anchor="middle" x="2293" y="-753.8" font-family="Helvetica,sans-Serif" font-weight="bold" font-size="14.00">Monster / entity tile rendering</text>
</g>
<g id="clust4" class="cluster">
<title>cluster_dungeon_static</title>
<path fill="#fbeaf0" fill-opacity="0.400000" stroke="#b4b2a9" d="M854,-593C854,-593 1183,-593 1183,-593 1189,-593 1195,-599 1195,-605 1195,-605 1195,-757 1195,-757 1195,-763 1189,-769 1183,-769 1183,-769 854,-769 854,-769 848,-769 842,-763 842,-757 842,-757 842,-605 842,-605 842,-599 848,-593 854,-593"/>
<text text-anchor="middle" x="1018.5" y="-753.8" font-family="Helvetica,sans-Serif" font-weight="bold" font-size="14.00">Static dungeon tile cache</text>
</g>
<g id="clust5" class="cluster">
<title>cluster_sword_overlay</title>
<path fill="#eeedfe" fill-opacity="0.400000" stroke="#b4b2a9" d="M2964,-304C2964,-304 4028,-304 4028,-304 4034,-304 4040,-310 4040,-316 4040,-316 4040,-555 4040,-555 4040,-561 4034,-567 4028,-567 4028,-567 2964,-567 2964,-567 2958,-567 2952,-561 2952,-555 2952,-555 2952,-316 2952,-316 2952,-310 2958,-304 2964,-304"/>
<text text-anchor="middle" x="3496" y="-551.8" font-family="Helvetica,sans-Serif" font-weight="bold" font-size="14.00">Sword overlay / VRAM blit</text>
</g>
<g id="clust6" class="cluster">
<title>cluster_cavern_anim</title>
<path fill="#faeeda" fill-opacity="0.400000" stroke="#b4b2a9" d="M20,-694C20,-694 822,-694 822,-694 828,-694 834,-700 834,-706 834,-706 834,-867 834,-867 834,-873 828,-879 822,-879 822,-879 20,-879 20,-879 14,-879 8,-873 8,-867 8,-867 8,-706 8,-706 8,-700 14,-694 20,-694"/>
<text text-anchor="middle" x="421" y="-863.8" font-family="Helvetica,sans-Serif" font-weight="bold" font-size="14.00">Cavern tile animation (fn&#45;ptr table)</text>
</g>
<g id="clust7" class="cluster">
<title>cluster_boss</title>
<path fill="#fcebeb" fill-opacity="0.400000" stroke="#b4b2a9" d="M1221,-492C1221,-492 1620,-492 1620,-492 1626,-492 1632,-498 1632,-504 1632,-504 1632,-656 1632,-656 1632,-662 1626,-668 1620,-668 1620,-668 1221,-668 1221,-668 1215,-668 1209,-662 1209,-656 1209,-656 1209,-504 1209,-504 1209,-498 1215,-492 1221,-492"/>
<text text-anchor="middle" x="1420.5" y="-652.8" font-family="Helvetica,sans-Serif" font-weight="bold" font-size="14.00">Boss explosion FX</text>
</g>
<g id="clust8" class="cluster">
<title>cluster_driver</title>
<path fill="#f1efe8" fill-opacity="0.400000" stroke="#b4b2a9" d="M2224,-905C2224,-905 2354,-905 2354,-905 2360,-905 2366,-911 2366,-917 2366,-917 2366,-968 2366,-968 2366,-974 2360,-980 2354,-980 2354,-980 2224,-980 2224,-980 2218,-980 2212,-974 2212,-968 2212,-968 2212,-917 2212,-917 2212,-911 2218,-905 2224,-905"/>
<text text-anchor="middle" x="2289" y="-964.8" font-family="Helvetica,sans-Serif" font-weight="bold" font-size="14.00">Per&#45;frame driver</text>
</g>
<!-- Update_Local_Attribute_Cache -->
<g id="node1" class="node">
<title>Update_Local_Attribute_Cache</title>
<path fill="#e6f1fb" stroke="black" d="M598,-637C598,-637 412,-637 412,-637 406,-637 400,-631 400,-625 400,-625 400,-613 400,-613 400,-607 406,-601 412,-601 412,-601 598,-601 598,-601 604,-601 610,-607 610,-613 610,-613 610,-625 610,-625 610,-631 604,-637 598,-637"/>
<text text-anchor="middle" x="505" y="-615.9" font-family="Helvetica,sans-Serif" font-size="12.00">Update_Local_Attribute_Cache</text>
</g>
<!-- _render_hero_3x3 -->
<g id="node3" class="node">
<title>_render_hero_3x3</title>
<path fill="#e6f1fb" stroke="black" d="M570.5,-536C570.5,-536 461.5,-536 461.5,-536 455.5,-536 449.5,-530 449.5,-524 449.5,-524 449.5,-512 449.5,-512 449.5,-506 455.5,-500 461.5,-500 461.5,-500 570.5,-500 570.5,-500 576.5,-500 582.5,-506 582.5,-512 582.5,-512 582.5,-524 582.5,-524 582.5,-530 576.5,-536 570.5,-536"/>
<text text-anchor="middle" x="516" y="-514.9" font-family="Helvetica,sans-Serif" font-size="12.00">_render_hero_3x3</text>
</g>
<!-- Update_Local_Attribute_Cache&#45;&gt;_render_hero_3x3 -->
<g id="edge1" class="edge">
<title>Update_Local_Attribute_Cache&#45;&gt;_render_hero_3x3</title>
<path fill="none" stroke="#5f5e5a" stroke-width="0.9" d="M506.92,-600.76C508.68,-584.86 511.32,-561.09 513.3,-543.28"/>
<polygon fill="#5f5e5a" stroke="#5f5e5a" stroke-width="0.9" points="515.77,-543.27 514.11,-536.05 510.9,-542.73 515.77,-543.27"/>
</g>
<!-- Sample_Neighborhood_Attributes -->
<g id="node2" class="node">
<title>Sample_Neighborhood_Attributes</title>
<path fill="#e6f1fb" stroke="black" d="M359,-637C359,-637 157,-637 157,-637 151,-637 145,-631 145,-625 145,-625 145,-613 145,-613 145,-607 151,-601 157,-601 157,-601 359,-601 359,-601 365,-601 371,-607 371,-613 371,-613 371,-625 371,-625 371,-631 365,-637 359,-637"/>
<text text-anchor="middle" x="258" y="-615.9" font-family="Helvetica,sans-Serif" font-size="12.00">Sample_Neighborhood_Attributes</text>
</g>
<!-- Sample_Neighborhood_Attributes&#45;&gt;_render_hero_3x3 -->
<g id="edge2" class="edge">
<title>Sample_Neighborhood_Attributes&#45;&gt;_render_hero_3x3</title>
<path fill="none" stroke="#5f5e5a" stroke-width="0.9" d="M302.35,-600.98C347.49,-583.66 417.37,-556.85 464.82,-538.64"/>
<polygon fill="#5f5e5a" stroke="#5f5e5a" stroke-width="0.9" points="465.71,-540.92 471.36,-536.13 463.95,-536.35 465.71,-540.92"/>
</g>
<!-- load_3x3_tiles -->
<g id="node6" class="node">
<title>load_3x3_tiles</title>
<path fill="#e6f1fb" stroke="black" d="M301,-536C301,-536 215,-536 215,-536 209,-536 203,-530 203,-524 203,-524 203,-512 203,-512 203,-506 209,-500 215,-500 215,-500 301,-500 301,-500 307,-500 313,-506 313,-512 313,-512 313,-524 313,-524 313,-530 307,-536 301,-536"/>
<text text-anchor="middle" x="258" y="-514.9" font-family="Helvetica,sans-Serif" font-size="12.00">load_3x3_tiles</text>
</g>
<!-- Sample_Neighborhood_Attributes&#45;&gt;load_3x3_tiles -->
<g id="edge3" class="edge">
<title>Sample_Neighborhood_Attributes&#45;&gt;load_3x3_tiles</title>
<path fill="none" stroke="#5f5e5a" stroke-width="0.9" d="M258,-600.76C258,-584.86 258,-561.09 258,-543.28"/>
<polygon fill="#5f5e5a" stroke="#5f5e5a" stroke-width="0.9" points="260.45,-543.05 258,-536.05 255.55,-543.05 260.45,-543.05"/>
</g>
<!-- choose_hero_sprite -->
<g id="node4" class="node">
<title>choose_hero_sprite</title>
<path fill="#e6f1fb" stroke="black" d="M560,-435C560,-435 436,-435 436,-435 430,-435 424,-429 424,-423 424,-423 424,-411 424,-411 424,-405 430,-399 436,-399 436,-399 560,-399 560,-399 566,-399 572,-405 572,-411 572,-411 572,-423 572,-423 572,-429 566,-435 560,-435"/>
<text text-anchor="middle" x="498" y="-413.9" font-family="Helvetica,sans-Serif" font-size="12.00">choose_hero_sprite</text>
</g>
<!-- _render_hero_3x3&#45;&gt;choose_hero_sprite -->
<g id="edge12" class="edge">
<title>_render_hero_3x3&#45;&gt;choose_hero_sprite</title>
<path fill="none" stroke="#5f5e5a" stroke-width="0.9" d="M511.55,-499.91C509.67,-492.32 507.56,-483.25 506,-475 503.97,-464.25 502.22,-452.28 500.87,-442.09"/>
<polygon fill="#5f5e5a" stroke="#5f5e5a" stroke-width="0.9" points="503.28,-441.66 499.96,-435.03 498.42,-442.28 503.28,-441.66"/>
</g>
<!-- Render_Empty_Or_Cached_Tile -->
<g id="node8" class="node">
<title>Render_Empty_Or_Cached_Tile</title>
<path fill="#e1f5ee" stroke="black" d="M1160,-348C1160,-348 972,-348 972,-348 966,-348 960,-342 960,-336 960,-336 960,-324 960,-324 960,-318 966,-312 972,-312 972,-312 1160,-312 1160,-312 1166,-312 1172,-318 1172,-324 1172,-324 1172,-336 1172,-336 1172,-342 1166,-348 1160,-348"/>
<text text-anchor="middle" x="1066" y="-326.9" font-family="Helvetica,sans-Serif" font-size="12.00">Render_Empty_Or_Cached_Tile</text>
</g>
<!-- _render_hero_3x3&#45;&gt;Render_Empty_Or_Cached_Tile -->
<g id="edge10" class="edge">
<title>_render_hero_3x3&#45;&gt;Render_Empty_Or_Cached_Tile</title>
<path fill="none" stroke="#5f5e5a" stroke-width="0.9" d="M582.82,-514.62C686.57,-509.99 880.85,-497.33 942,-466 991.98,-440.39 1031.97,-385.95 1052,-354.59"/>
<polygon fill="#5f5e5a" stroke="#5f5e5a" stroke-width="0.9" points="1054.32,-355.5 1055.96,-348.26 1050.17,-352.89 1054.32,-355.5"/>
</g>
<!-- Render_Tile_With_Palette -->
<g id="node9" class="node">
<title>Render_Tile_With_Palette</title>
<path fill="#e1f5ee" stroke="black" d="M915.5,-435C915.5,-435 764.5,-435 764.5,-435 758.5,-435 752.5,-429 752.5,-423 752.5,-423 752.5,-411 752.5,-411 752.5,-405 758.5,-399 764.5,-399 764.5,-399 915.5,-399 915.5,-399 921.5,-399 927.5,-405 927.5,-411 927.5,-411 927.5,-423 927.5,-423 927.5,-429 921.5,-435 915.5,-435"/>
<text text-anchor="middle" x="840" y="-413.9" font-family="Helvetica,sans-Serif" font-size="12.00">Render_Tile_With_Palette</text>
</g>
<!-- _render_hero_3x3&#45;&gt;Render_Tile_With_Palette -->
<g id="edge11" class="edge">
<title>_render_hero_3x3&#45;&gt;Render_Tile_With_Palette</title>
<path fill="none" stroke="#5f5e5a" stroke-width="0.9" d="M571.7,-499.98C628.93,-482.49 717.85,-455.32 777.46,-437.11"/>
<polygon fill="#5f5e5a" stroke="#5f5e5a" stroke-width="0.9" points="778.24,-439.43 784.22,-435.04 776.81,-434.75 778.24,-439.43"/>
</g>
<!-- Lookup_Monster_Tile_Attributes -->
<g id="node20" class="node">
<title>Lookup_Monster_Tile_Attributes</title>
<path fill="#faece7" stroke="black" d="M2146,-435C2146,-435 1954,-435 1954,-435 1948,-435 1942,-429 1942,-423 1942,-423 1942,-411 1942,-411 1942,-405 1948,-399 1954,-399 1954,-399 2146,-399 2146,-399 2152,-399 2158,-405 2158,-411 2158,-411 2158,-423 2158,-423 2158,-429 2152,-435 2146,-435"/>
<text text-anchor="middle" x="2050" y="-413.9" font-family="Helvetica,sans-Serif" font-size="12.00">Lookup_Monster_Tile_Attributes</text>
</g>
<!-- _render_hero_3x3&#45;&gt;Lookup_Monster_Tile_Attributes -->
<g id="edge9" class="edge">
<title>_render_hero_3x3&#45;&gt;Lookup_Monster_Tile_Attributes</title>
<path fill="none" stroke="#5f5e5a" stroke-width="0.9" d="M582.57,-515.27C752.67,-510.54 1217.09,-495.75 1603,-466 1716.01,-457.29 1844.64,-443.02 1934.81,-432.29"/>
<polygon fill="#5f5e5a" stroke="#5f5e5a" stroke-width="0.9" points="1935.12,-434.72 1941.78,-431.46 1934.54,-429.86 1935.12,-434.72"/>
</g>
<!-- Render_Hero_Sprite_To_Buf9 -->
<g id="node5" class="node">
<title>Render_Hero_Sprite_To_Buf9</title>
<path fill="#e6f1fb" stroke="black" d="M585,-348C585,-348 411,-348 411,-348 405,-348 399,-342 399,-336 399,-336 399,-324 399,-324 399,-318 405,-312 411,-312 411,-312 585,-312 585,-312 591,-312 597,-318 597,-324 597,-324 597,-336 597,-336 597,-342 591,-348 585,-348"/>
<text text-anchor="middle" x="498" y="-326.9" font-family="Helvetica,sans-Serif" font-size="12.00">Render_Hero_Sprite_To_Buf9</text>
</g>
<!-- choose_hero_sprite&#45;&gt;Render_Hero_Sprite_To_Buf9 -->
<g id="edge13" class="edge">
<title>choose_hero_sprite&#45;&gt;Render_Hero_Sprite_To_Buf9</title>
<path fill="none" stroke="#5f5e5a" stroke-width="0.9" d="M498,-398.8C498,-386.36 498,-369.36 498,-355.5"/>
<polygon fill="#5f5e5a" stroke="#5f5e5a" stroke-width="0.9" points="500.45,-355.18 498,-348.18 495.55,-355.18 500.45,-355.18"/>
</g>
<!-- get_player_shield_category -->
<g id="node7" class="node">
<title>get_player_shield_category</title>
<path fill="#e6f1fb" stroke="black" d="M357.5,-348C357.5,-348 192.5,-348 192.5,-348 186.5,-348 180.5,-342 180.5,-336 180.5,-336 180.5,-324 180.5,-324 180.5,-318 186.5,-312 192.5,-312 192.5,-312 357.5,-312 357.5,-312 363.5,-312 369.5,-318 369.5,-324 369.5,-324 369.5,-336 369.5,-336 369.5,-342 363.5,-348 357.5,-348"/>
<text text-anchor="middle" x="275" y="-326.9" font-family="Helvetica,sans-Serif" font-size="12.00">get_player_shield_category</text>
</g>
<!-- choose_hero_sprite&#45;&gt;get_player_shield_category -->
<g id="edge14" class="edge">
<title>choose_hero_sprite&#45;&gt;get_player_shield_category</title>
<path fill="none" stroke="#5f5e5a" stroke-width="0.9" d="M453.14,-398.9C416.62,-384.98 365.04,-365.32 326.77,-350.73"/>
<polygon fill="#5f5e5a" stroke="#5f5e5a" stroke-width="0.9" points="327.2,-348.28 319.79,-348.07 325.46,-352.85 327.2,-348.28"/>
</g>
<!-- render_tile_to_temp_buffer -->
<g id="node16" class="node">
<title>render_tile_to_temp_buffer</title>
<path fill="#e1f5ee" stroke="black" d="M861,-261C861,-261 697,-261 697,-261 691,-261 685,-255 685,-249 685,-249 685,-237 685,-237 685,-231 691,-225 697,-225 697,-225 861,-225 861,-225 867,-225 873,-231 873,-237 873,-237 873,-249 873,-249 873,-255 867,-261 861,-261"/>
<text text-anchor="middle" x="779" y="-239.9" font-family="Helvetica,sans-Serif" font-size="12.00">render_tile_to_temp_buffer</text>
</g>
<!-- Render_Hero_Sprite_To_Buf9&#45;&gt;render_tile_to_temp_buffer -->
<g id="edge15" class="edge">
<title>Render_Hero_Sprite_To_Buf9&#45;&gt;render_tile_to_temp_buffer</title>
<path fill="none" stroke="#5f5e5a" stroke-width="0.9" d="M554.53,-311.9C601.21,-297.78 667.44,-277.75 715.85,-263.1"/>
<polygon fill="#5f5e5a" stroke="#5f5e5a" stroke-width="0.9" points="716.57,-265.44 722.56,-261.07 715.15,-260.75 716.57,-265.44"/>
</g>
<!-- render_48bytes_packed_tile -->
<g id="node10" class="node">
<title>render_48bytes_packed_tile</title>
<path fill="#e1f5ee" stroke="black" d="M1083.5,-261C1083.5,-261 914.5,-261 914.5,-261 908.5,-261 902.5,-255 902.5,-249 902.5,-249 902.5,-237 902.5,-237 902.5,-231 908.5,-225 914.5,-225 914.5,-225 1083.5,-225 1083.5,-225 1089.5,-225 1095.5,-231 1095.5,-237 1095.5,-237 1095.5,-249 1095.5,-249 1095.5,-255 1089.5,-261 1083.5,-261"/>
<text text-anchor="middle" x="999" y="-239.9" font-family="Helvetica,sans-Serif" font-size="12.00">render_48bytes_packed_tile</text>
</g>
<!-- Render_Empty_Or_Cached_Tile&#45;&gt;render_48bytes_packed_tile -->
<g id="edge5" class="edge">
<title>Render_Empty_Or_Cached_Tile&#45;&gt;render_48bytes_packed_tile</title>
<path fill="none" stroke="#5f5e5a" stroke-width="0.9" d="M1052.44,-311.8C1042.27,-298.9 1028.24,-281.1 1017.11,-266.98"/>
<polygon fill="#5f5e5a" stroke="#5f5e5a" stroke-width="0.9" points="1018.8,-265.16 1012.54,-261.18 1014.95,-268.19 1018.8,-265.16"/>
</g>
<!-- Clear_Tile_Buffer -->
<g id="node19" class="node">
<title>Clear_Tile_Buffer</title>
<path fill="#e1f5ee" stroke="black" d="M1239.5,-261C1239.5,-261 1136.5,-261 1136.5,-261 1130.5,-261 1124.5,-255 1124.5,-249 1124.5,-249 1124.5,-237 1124.5,-237 1124.5,-231 1130.5,-225 1136.5,-225 1136.5,-225 1239.5,-225 1239.5,-225 1245.5,-225 1251.5,-231 1251.5,-237 1251.5,-237 1251.5,-249 1251.5,-249 1251.5,-255 1245.5,-261 1239.5,-261"/>
<text text-anchor="middle" x="1188" y="-239.9" font-family="Helvetica,sans-Serif" font-size="12.00">Clear_Tile_Buffer</text>
</g>
<!-- Render_Empty_Or_Cached_Tile&#45;&gt;Clear_Tile_Buffer -->
<g id="edge4" class="edge">
<title>Render_Empty_Or_Cached_Tile&#45;&gt;Clear_Tile_Buffer</title>
<path fill="none" stroke="#5f5e5a" stroke-width="0.9" d="M1090.69,-311.8C1109.95,-298.38 1136.82,-279.66 1157.44,-265.29"/>
<polygon fill="#5f5e5a" stroke="#5f5e5a" stroke-width="0.9" points="1159.01,-267.19 1163.35,-261.18 1156.2,-263.17 1159.01,-267.19"/>
</g>
<!-- render_nibble_compressed_tile -->
<g id="node12" class="node">
<title>render_nibble_compressed_tile</title>
<path fill="#e1f5ee" stroke="black" d="M1400.5,-348C1400.5,-348 1213.5,-348 1213.5,-348 1207.5,-348 1201.5,-342 1201.5,-336 1201.5,-336 1201.5,-324 1201.5,-324 1201.5,-318 1207.5,-312 1213.5,-312 1213.5,-312 1400.5,-312 1400.5,-312 1406.5,-312 1412.5,-318 1412.5,-324 1412.5,-324 1412.5,-336 1412.5,-336 1412.5,-342 1406.5,-348 1400.5,-348"/>
<text text-anchor="middle" x="1307" y="-326.9" font-family="Helvetica,sans-Serif" font-size="12.00">render_nibble_compressed_tile</text>
</g>
<!-- Render_Tile_With_Palette&#45;&gt;render_nibble_compressed_tile -->
<g id="edge8" class="edge">
<title>Render_Tile_With_Palette&#45;&gt;render_nibble_compressed_tile</title>
<path fill="none" stroke="#5f5e5a" stroke-width="0.9" d="M866.21,-398.89C881.77,-389.6 902.27,-378.85 922,-373 1035.41,-339.34 1069.51,-361.86 1187,-348 1189.35,-347.72 1191.73,-347.44 1194.12,-347.14"/>
<polygon fill="#5f5e5a" stroke="#5f5e5a" stroke-width="0.9" points="1194.71,-349.54 1201.35,-346.25 1194.1,-344.68 1194.71,-349.54"/>
</g>
<!-- decode_and_render_tile_with_blitting -->
<g id="node17" class="node">
<title>decode_and_render_tile_with_blitting</title>
<path fill="#e1f5ee" stroke="black" d="M919,-348C919,-348 697,-348 697,-348 691,-348 685,-342 685,-336 685,-336 685,-324 685,-324 685,-318 691,-312 697,-312 697,-312 919,-312 919,-312 925,-312 931,-318 931,-324 931,-324 931,-336 931,-336 931,-342 925,-348 919,-348"/>
<text text-anchor="middle" x="808" y="-326.9" font-family="Helvetica,sans-Serif" font-size="12.00">decode_and_render_tile_with_blitting</text>
</g>
<!-- Render_Tile_With_Palette&#45;&gt;decode_and_render_tile_with_blitting -->
<g id="edge7" class="edge">
<title>Render_Tile_With_Palette&#45;&gt;decode_and_render_tile_with_blitting</title>
<path fill="none" stroke="#5f5e5a" stroke-width="0.9" d="M833.52,-398.8C828.75,-386.13 822.21,-368.73 816.94,-354.74"/>
<polygon fill="#5f5e5a" stroke="#5f5e5a" stroke-width="0.9" points="819.23,-353.86 814.47,-348.18 814.64,-355.59 819.23,-353.86"/>
</g>
<!-- Translate_Tile_Index -->
<g id="node18" class="node">
<title>Translate_Tile_Index</title>
<path fill="#e1f5ee" stroke="black" d="M1576,-348C1576,-348 1454,-348 1454,-348 1448,-348 1442,-342 1442,-336 1442,-336 1442,-324 1442,-324 1442,-318 1448,-312 1454,-312 1454,-312 1576,-312 1576,-312 1582,-312 1588,-318 1588,-324 1588,-324 1588,-336 1588,-336 1588,-342 1582,-348 1576,-348"/>
<text text-anchor="middle" x="1515" y="-326.9" font-family="Helvetica,sans-Serif" font-size="12.00">Translate_Tile_Index</text>
</g>
<!-- Render_Tile_With_Palette&#45;&gt;Translate_Tile_Index -->
<g id="edge6" class="edge">
<title>Render_Tile_With_Palette&#45;&gt;Translate_Tile_Index</title>
<path fill="none" stroke="#5f5e5a" stroke-width="0.9" d="M927.79,-407.92C1042.8,-396.85 1250.58,-375.22 1427,-348 1429.53,-347.61 1432.1,-347.2 1434.7,-346.77"/>
<polygon fill="#5f5e5a" stroke="#5f5e5a" stroke-width="0.9" points="1435.11,-349.19 1441.61,-345.61 1434.3,-344.35 1435.11,-349.19"/>
</g>
<!-- decode_packed_6bit_tile -->
<g id="node11" class="node">
<title>decode_packed_6bit_tile</title>
<path fill="#e1f5ee" stroke="black" d="M1336.5,-139C1336.5,-139 1187.5,-139 1187.5,-139 1181.5,-139 1175.5,-133 1175.5,-127 1175.5,-127 1175.5,-115 1175.5,-115 1175.5,-109 1181.5,-103 1187.5,-103 1187.5,-103 1336.5,-103 1336.5,-103 1342.5,-103 1348.5,-109 1348.5,-115 1348.5,-115 1348.5,-127 1348.5,-127 1348.5,-133 1342.5,-139 1336.5,-139"/>
<text text-anchor="middle" x="1262" y="-117.9" font-family="Helvetica,sans-Serif" font-size="12.00">decode_packed_6bit_tile</text>
</g>
<!-- render_48bytes_packed_tile&#45;&gt;decode_packed_6bit_tile -->
<g id="edge25" class="edge">
<title>render_48bytes_packed_tile&#45;&gt;decode_packed_6bit_tile</title>
<path fill="none" stroke="#5f5e5a" stroke-width="0.9" d="M1008.77,-224.81C1019.97,-206.75 1040.04,-178.94 1065,-164 1095.82,-145.56 1133.61,-135.15 1167.82,-129.31"/>
<polygon fill="#5f5e5a" stroke="#5f5e5a" stroke-width="0.9" points="1168.55,-131.67 1175.07,-128.13 1167.76,-126.83 1168.55,-131.67"/>
</g>
<!-- draw_4_pix_from_table_by_ax -->
<g id="node13" class="node">
<title>draw_4_pix_from_table_by_ax</title>
<path fill="#e1f5ee" stroke="black" d="M1271,-200C1271,-200 1091,-200 1091,-200 1085,-200 1079,-194 1079,-188 1079,-188 1079,-176 1079,-176 1079,-170 1085,-164 1091,-164 1091,-164 1271,-164 1271,-164 1277,-164 1283,-170 1283,-176 1283,-176 1283,-188 1283,-188 1283,-194 1277,-200 1271,-200"/>
<text text-anchor="middle" x="1181" y="-178.9" font-family="Helvetica,sans-Serif" font-size="12.00">draw_4_pix_from_table_by_ax</text>
</g>
<!-- render_nibble_compressed_tile&#45;&gt;draw_4_pix_from_table_by_ax -->
<g id="edge30" class="edge">
<title>render_nibble_compressed_tile&#45;&gt;draw_4_pix_from_table_by_ax</title>
<path fill="none" stroke="#5f5e5a" stroke-width="0.9" d="M1304.19,-311.86C1299.71,-289.42 1288.99,-250 1266,-225 1257.99,-216.29 1247.77,-209.16 1237.22,-203.41"/>
<polygon fill="#5f5e5a" stroke="#5f5e5a" stroke-width="0.9" points="1238.33,-201.22 1230.99,-200.18 1236.08,-205.58 1238.33,-201.22"/>
</g>
<!-- get_pixel_from_table_by_ax_hi_nibble -->
<g id="node14" class="node">
<title>get_pixel_from_table_by_ax_hi_nibble</title>
<path fill="#e1f5ee" stroke="black" d="M1027.5,-52C1027.5,-52 802.5,-52 802.5,-52 796.5,-52 790.5,-46 790.5,-40 790.5,-40 790.5,-28 790.5,-28 790.5,-22 796.5,-16 802.5,-16 802.5,-16 1027.5,-16 1027.5,-16 1033.5,-16 1039.5,-22 1039.5,-28 1039.5,-28 1039.5,-40 1039.5,-40 1039.5,-46 1033.5,-52 1027.5,-52"/>
<text text-anchor="middle" x="915" y="-30.9" font-family="Helvetica,sans-Serif" font-size="12.00">get_pixel_from_table_by_ax_hi_nibble</text>
</g>
<!-- draw_4_pix_from_table_by_ax&#45;&gt;get_pixel_from_table_by_ax_hi_nibble -->
<g id="edge29" class="edge">
<title>draw_4_pix_from_table_by_ax&#45;&gt;get_pixel_from_table_by_ax_hi_nibble</title>
<path fill="none" stroke="#5f5e5a" stroke-width="0.9" d="M1149.97,-163.97C1100.84,-137 1005.35,-84.59 952.48,-55.57"/>
<polygon fill="#5f5e5a" stroke="#5f5e5a" stroke-width="0.9" points="953.56,-53.37 946.25,-52.15 951.21,-57.67 953.56,-53.37"/>
</g>
<!-- four_pixels_or_blit -->
<g id="node15" class="node">
<title>four_pixels_or_blit</title>
<path fill="#e1f5ee" stroke="black" d="M885,-139C885,-139 775,-139 775,-139 769,-139 763,-133 763,-127 763,-127 763,-115 763,-115 763,-109 769,-103 775,-103 775,-103 885,-103 885,-103 891,-103 897,-109 897,-115 897,-115 897,-127 897,-127 897,-133 891,-139 885,-139"/>
<text text-anchor="middle" x="830" y="-117.9" font-family="Helvetica,sans-Serif" font-size="12.00">four_pixels_or_blit</text>
</g>
<!-- four_pixels_or_blit&#45;&gt;get_pixel_from_table_by_ax_hi_nibble -->
<g id="edge31" class="edge">
<title>four_pixels_or_blit&#45;&gt;get_pixel_from_table_by_ax_hi_nibble</title>
<path fill="none" stroke="#5f5e5a" stroke-width="0.9" d="M847.2,-102.8C860.34,-89.66 878.54,-71.46 892.78,-57.22"/>
<polygon fill="#5f5e5a" stroke="#5f5e5a" stroke-width="0.9" points="894.61,-58.86 897.82,-52.18 891.14,-55.39 894.61,-58.86"/>
</g>
<!-- render_tile_to_temp_buffer&#45;&gt;four_pixels_or_blit -->
<g id="edge32" class="edge">
<title>render_tile_to_temp_buffer&#45;&gt;four_pixels_or_blit</title>
<path fill="none" stroke="#5f5e5a" stroke-width="0.9" d="M786.31,-224.81C795.13,-204.04 810.02,-169.01 819.93,-145.7"/>
<polygon fill="#5f5e5a" stroke="#5f5e5a" stroke-width="0.9" points="822.22,-146.56 822.71,-139.16 817.71,-144.65 822.22,-146.56"/>
</g>
<!-- decode_and_render_tile_with_blitting&#45;&gt;render_48bytes_packed_tile -->
<g id="edge33" class="edge">
<title>decode_and_render_tile_with_blitting&#45;&gt;render_48bytes_packed_tile</title>
<path fill="none" stroke="#5f5e5a" stroke-width="0.9" d="M846.65,-311.8C877.69,-297.99 921.33,-278.57 953.95,-264.05"/>
<polygon fill="#5f5e5a" stroke="#5f5e5a" stroke-width="0.9" points="955.33,-266.11 960.73,-261.03 953.34,-261.64 955.33,-266.11"/>
</g>
<!-- decode_and_render_tile_with_blitting&#45;&gt;render_tile_to_temp_buffer -->
<g id="edge34" class="edge">
<title>decode_and_render_tile_with_blitting&#45;&gt;render_tile_to_temp_buffer</title>
<path fill="none" stroke="#5f5e5a" stroke-width="0.9" d="M802.13,-311.8C797.85,-299.24 791.98,-282.05 787.23,-268.12"/>
<polygon fill="#5f5e5a" stroke="#5f5e5a" stroke-width="0.9" points="789.44,-267.01 784.86,-261.18 784.8,-268.59 789.44,-267.01"/>
</g>
<!-- Decode_And_Render_MonsterEntity_Tile_With_Blit -->
<g id="node21" class="node">
<title>Decode_And_Render_MonsterEntity_Tile_With_Blit</title>
<path fill="#faece7" stroke="black" d="M2497,-435C2497,-435 2199,-435 2199,-435 2193,-435 2187,-429 2187,-423 2187,-423 2187,-411 2187,-411 2187,-405 2193,-399 2199,-399 2199,-399 2497,-399 2497,-399 2503,-399 2509,-405 2509,-411 2509,-411 2509,-423 2509,-423 2509,-429 2503,-435 2497,-435"/>
<text text-anchor="middle" x="2348" y="-413.9" font-family="Helvetica,sans-Serif" font-size="12.00">Decode_And_Render_MonsterEntity_Tile_With_Blit</text>
</g>
<!-- Decode_And_Render_MonsterEntity_Tile_With_Blit&#45;&gt;render_nibble_compressed_tile -->
<g id="edge37" class="edge">
<title>Decode_And_Render_MonsterEntity_Tile_With_Blit&#45;&gt;render_nibble_compressed_tile</title>
<path fill="none" stroke="#5f5e5a" stroke-width="0.9" d="M2238.95,-398.97C2217.15,-395.98 2194.38,-393.14 2173,-391 1842.99,-357.96 1758.05,-380.65 1428,-348 1425.31,-347.73 1422.58,-347.45 1419.84,-347.16"/>
<polygon fill="#5f5e5a" stroke="#5f5e5a" stroke-width="0.9" points="1419.75,-344.68 1412.53,-346.34 1419.21,-349.55 1419.75,-344.68"/>
</g>
<!-- Decode_And_Render_MonsterEntity_Tile_With_Blit&#45;&gt;decode_and_render_tile_with_blitting -->
<g id="edge36" class="edge">
<title>Decode_And_Render_MonsterEntity_Tile_With_Blit&#45;&gt;decode_and_render_tile_with_blitting</title>
<path fill="none" stroke="#5f5e5a" stroke-width="0.9" d="M2241.79,-398.97C2219.14,-395.86 2195.32,-392.98 2173,-391 1901.23,-366.9 1217.99,-369.48 946,-348 943.59,-347.81 941.16,-347.61 938.72,-347.4"/>
<polygon fill="#5f5e5a" stroke="#5f5e5a" stroke-width="0.9" points="938.52,-344.92 931.33,-346.74 938.09,-349.8 938.52,-344.92"/>
</g>
<!-- Copy_Tile_To_VRAM -->
<g id="node40" class="node">
<title>Copy_Tile_To_VRAM</title>
<path fill="#eeedfe" stroke="black" d="M3285,-348C3285,-348 3167,-348 3167,-348 3161,-348 3155,-342 3155,-336 3155,-336 3155,-324 3155,-324 3155,-318 3161,-312 3167,-312 3167,-312 3285,-312 3285,-312 3291,-312 3297,-318 3297,-324 3297,-324 3297,-336 3297,-336 3297,-342 3291,-348 3285,-348"/>
<text text-anchor="middle" x="3226" y="-326.9" font-family="Helvetica,sans-Serif" font-size="12.00">Copy_Tile_To_VRAM</text>
</g>
<!-- Decode_And_Render_MonsterEntity_Tile_With_Blit&#45;&gt;Copy_Tile_To_VRAM -->
<g id="edge35" class="edge">
<title>Decode_And_Render_MonsterEntity_Tile_With_Blit&#45;&gt;Copy_Tile_To_VRAM</title>
<path fill="none" stroke="#5f5e5a" stroke-width="0.9" d="M2509.37,-407.34C2669.83,-397.5 2922.73,-378.71 3140,-348 3142.56,-347.64 3145.16,-347.25 3147.79,-346.84"/>
<polygon fill="#5f5e5a" stroke="#5f5e5a" stroke-width="0.9" points="3148.25,-349.24 3154.77,-345.7 3147.47,-344.41 3148.25,-349.24"/>
</g>
<!-- Render_Tile_Neighborhood_Cell -->
<g id="node22" class="node">
<title>Render_Tile_Neighborhood_Cell</title>
<path fill="#faece7" stroke="black" d="M1903.5,-637C1903.5,-637 1714.5,-637 1714.5,-637 1708.5,-637 1702.5,-631 1702.5,-625 1702.5,-625 1702.5,-613 1702.5,-613 1702.5,-607 1708.5,-601 1714.5,-601 1714.5,-601 1903.5,-601 1903.5,-601 1909.5,-601 1915.5,-607 1915.5,-613 1915.5,-613 1915.5,-625 1915.5,-625 1915.5,-631 1909.5,-637 1903.5,-637"/>
<text text-anchor="middle" x="1809" y="-615.9" font-family="Helvetica,sans-Serif" font-size="12.00">Render_Tile_Neighborhood_Cell</text>
</g>
<!-- render_tile_neighborhood_cell_internal -->
<g id="node23" class="node">
<title>render_tile_neighborhood_cell_internal</title>
<path fill="#faece7" stroke="black" d="M1925,-536C1925,-536 1693,-536 1693,-536 1687,-536 1681,-530 1681,-524 1681,-524 1681,-512 1681,-512 1681,-506 1687,-500 1693,-500 1693,-500 1925,-500 1925,-500 1931,-500 1937,-506 1937,-512 1937,-512 1937,-524 1937,-524 1937,-530 1931,-536 1925,-536"/>
<text text-anchor="middle" x="1809" y="-514.9" font-family="Helvetica,sans-Serif" font-size="12.00">render_tile_neighborhood_cell_internal</text>
</g>
<!-- Render_Tile_Neighborhood_Cell&#45;&gt;render_tile_neighborhood_cell_internal -->
<g id="edge38" class="edge">
<title>Render_Tile_Neighborhood_Cell&#45;&gt;render_tile_neighborhood_cell_internal</title>
<path fill="none" stroke="#5f5e5a" stroke-width="0.9" d="M1809,-600.76C1809,-584.86 1809,-561.09 1809,-543.28"/>
<polygon fill="#5f5e5a" stroke="#5f5e5a" stroke-width="0.9" points="1811.45,-543.05 1809,-536.05 1806.55,-543.05 1811.45,-543.05"/>
</g>
<!-- render_tile_neighborhood_cell_internal&#45;&gt;Translate_Tile_Index -->
<g id="edge40" class="edge">
<title>render_tile_neighborhood_cell_internal&#45;&gt;Translate_Tile_Index</title>
<path fill="none" stroke="#5f5e5a" stroke-width="0.9" d="M1694.19,-499.97C1620.97,-488.98 1539.48,-476.47 1538,-475 1506.44,-443.58 1507.39,-387.36 1511.08,-355.24"/>
<polygon fill="#5f5e5a" stroke="#5f5e5a" stroke-width="0.9" points="1513.54,-355.27 1512,-348.01 1508.68,-354.65 1513.54,-355.27"/>
</g>
<!-- render_tile_neighborhood_cell_internal&#45;&gt;Decode_And_Render_MonsterEntity_Tile_With_Blit -->
<g id="edge39" class="edge">
<title>render_tile_neighborhood_cell_internal&#45;&gt;Decode_And_Render_MonsterEntity_Tile_With_Blit</title>
<path fill="none" stroke="#5f5e5a" stroke-width="0.9" d="M1926.92,-499.95C1945.67,-497.27 1964.87,-494.54 1983,-492 2067.41,-480.16 2089.5,-483.09 2173,-466 2211.04,-458.22 2253,-446.8 2286.31,-437.06"/>
<polygon fill="#5f5e5a" stroke="#5f5e5a" stroke-width="0.9" points="2287.25,-439.33 2293.28,-435.01 2285.87,-434.63 2287.25,-439.33"/>
</g>
<!-- Render_Top_Left_Corner_Entity -->
<g id="node24" class="node">
<title>Render_Top_Left_Corner_Entity</title>
<path fill="#faece7" stroke="black" d="M2924,-536C2924,-536 2738,-536 2738,-536 2732,-536 2726,-530 2726,-524 2726,-524 2726,-512 2726,-512 2726,-506 2732,-500 2738,-500 2738,-500 2924,-500 2924,-500 2930,-500 2936,-506 2936,-512 2936,-512 2936,-524 2936,-524 2936,-530 2930,-536 2924,-536"/>
<text text-anchor="middle" x="2831" y="-514.9" font-family="Helvetica,sans-Serif" font-size="12.00">Render_Top_Left_Corner_Entity</text>
</g>
<!-- Render_Top_Left_Corner_Entity&#45;&gt;Translate_Tile_Index -->
<g id="edge43" class="edge">
<title>Render_Top_Left_Corner_Entity&#45;&gt;Translate_Tile_Index</title>
<path fill="none" stroke="#5f5e5a" stroke-width="0.9" d="M2799.44,-499.93C2745.05,-471.46 2629.32,-415.04 2524,-391 2347.84,-350.79 1802.17,-336.45 1595.47,-332.37"/>
<polygon fill="#5f5e5a" stroke="#5f5e5a" stroke-width="0.9" points="1595.31,-329.92 1588.26,-332.23 1595.21,-334.82 1595.31,-329.92"/>
</g>
<!-- Render_Top_Left_Corner_Entity&#45;&gt;Lookup_Monster_Tile_Attributes -->
<g id="edge42" class="edge">
<title>Render_Top_Left_Corner_Entity&#45;&gt;Lookup_Monster_Tile_Attributes</title>
<path fill="none" stroke="#5f5e5a" stroke-width="0.9" d="M2758.94,-499.95C2743.53,-496.84 2727.29,-493.96 2712,-492 2593.06,-476.74 2290.28,-491.01 2173,-466 2144.82,-459.99 2114.67,-448.31 2091.27,-437.98"/>
<polygon fill="#5f5e5a" stroke="#5f5e5a" stroke-width="0.9" points="2092.24,-435.73 2084.85,-435.11 2090.24,-440.2 2092.24,-435.73"/>
</g>
<!-- Render_Top_Left_Corner_Entity&#45;&gt;Decode_And_Render_MonsterEntity_Tile_With_Blit -->
<g id="edge41" class="edge">
<title>Render_Top_Left_Corner_Entity&#45;&gt;Decode_And_Render_MonsterEntity_Tile_With_Blit</title>
<path fill="none" stroke="#5f5e5a" stroke-width="0.9" d="M2755.34,-499.99C2740.99,-497.08 2726.07,-494.27 2712,-492 2645.76,-481.31 2627.93,-487.45 2562,-475 2510.11,-465.2 2452.29,-449.51 2409.85,-437.07"/>
<polygon fill="#5f5e5a" stroke="#5f5e5a" stroke-width="0.9" points="2410.32,-434.65 2402.91,-435.02 2408.93,-439.35 2410.32,-434.65"/>
</g>
<!-- Render_Top_Right_Corner_Entity -->
<g id="node25" class="node">
<title>Render_Top_Right_Corner_Entity</title>
<path fill="#faece7" stroke="black" d="M2204.5,-536C2204.5,-536 2009.5,-536 2009.5,-536 2003.5,-536 1997.5,-530 1997.5,-524 1997.5,-524 1997.5,-512 1997.5,-512 1997.5,-506 2003.5,-500 2009.5,-500 2009.5,-500 2204.5,-500 2204.5,-500 2210.5,-500 2216.5,-506 2216.5,-512 2216.5,-512 2216.5,-524 2216.5,-524 2216.5,-530 2210.5,-536 2204.5,-536"/>
<text text-anchor="middle" x="2107" y="-514.9" font-family="Helvetica,sans-Serif" font-size="12.00">Render_Top_Right_Corner_Entity</text>
</g>
<!-- Render_Top_Right_Corner_Entity&#45;&gt;Translate_Tile_Index -->
<g id="edge46" class="edge">
<title>Render_Top_Right_Corner_Entity&#45;&gt;Translate_Tile_Index</title>
<path fill="none" stroke="#5f5e5a" stroke-width="0.9" d="M2011.3,-499.99C1991.73,-496.96 1971.24,-494.1 1952,-492 1886.5,-484.86 1715.98,-502.27 1656,-475 1598.43,-448.83 1551.86,-387.83 1529.46,-354.23"/>
<polygon fill="#5f5e5a" stroke="#5f5e5a" stroke-width="0.9" points="1531.45,-352.8 1525.56,-348.29 1527.36,-355.48 1531.45,-352.8"/>
</g>
<!-- Render_Top_Right_Corner_Entity&#45;&gt;Lookup_Monster_Tile_Attributes -->
<g id="edge45" class="edge">
<title>Render_Top_Right_Corner_Entity&#45;&gt;Lookup_Monster_Tile_Attributes</title>
<path fill="none" stroke="#5f5e5a" stroke-width="0.9" d="M2083.55,-500C2075.59,-493.09 2067.36,-484.49 2062,-475 2056.39,-465.05 2053.39,-452.79 2051.8,-442.19"/>
<polygon fill="#5f5e5a" stroke="#5f5e5a" stroke-width="0.9" points="2054.22,-441.8 2050.9,-435.16 2049.36,-442.42 2054.22,-441.8"/>
</g>
<!-- Render_Top_Right_Corner_Entity&#45;&gt;Decode_And_Render_MonsterEntity_Tile_With_Blit -->
<g id="edge44" class="edge">
<title>Render_Top_Right_Corner_Entity&#45;&gt;Decode_And_Render_MonsterEntity_Tile_With_Blit</title>
<path fill="none" stroke="#5f5e5a" stroke-width="0.9" d="M2148.43,-499.98C2190.42,-482.73 2255.34,-456.07 2299.65,-437.86"/>
<polygon fill="#5f5e5a" stroke="#5f5e5a" stroke-width="0.9" points="2300.76,-440.05 2306.3,-435.13 2298.9,-435.52 2300.76,-440.05"/>
</g>
<!-- Render_Tile_With_Attribute_Cache -->
<g id="node26" class="node">
<title>Render_Tile_With_Attribute_Cache</title>
<path fill="#faece7" stroke="black" d="M2115,-738C2115,-738 1909,-738 1909,-738 1903,-738 1897,-732 1897,-726 1897,-726 1897,-714 1897,-714 1897,-708 1903,-702 1909,-702 1909,-702 2115,-702 2115,-702 2121,-702 2127,-708 2127,-714 2127,-714 2127,-726 2127,-726 2127,-732 2121,-738 2115,-738"/>
<text text-anchor="middle" x="2012" y="-716.9" font-family="Helvetica,sans-Serif" font-size="12.00">Render_Tile_With_Attribute_Cache</text>
</g>
<!-- Render_Tile_With_Attribute_Cache&#45;&gt;Lookup_Monster_Tile_Attributes -->
<g id="edge47" class="edge">
<title>Render_Tile_With_Attribute_Cache&#45;&gt;Lookup_Monster_Tile_Attributes</title>
<path fill="none" stroke="#5f5e5a" stroke-width="0.9" d="M2004.34,-701.81C1988.2,-662.99 1954.42,-566.14 1983,-492 1990.94,-471.4 2007.56,-452.99 2022.26,-439.68"/>
<polygon fill="#5f5e5a" stroke="#5f5e5a" stroke-width="0.9" points="2023.93,-441.47 2027.57,-435.01 2020.7,-437.79 2023.93,-441.47"/>
</g>
<!-- Render_Tile_With_Attribute_Cache&#45;&gt;Render_Tile_Neighborhood_Cell -->
<g id="edge48" class="edge">
<title>Render_Tile_With_Attribute_Cache&#45;&gt;Render_Tile_Neighborhood_Cell</title>
<path fill="none" stroke="#5f5e5a" stroke-width="0.9" d="M1977.1,-701.98C1941.95,-684.84 1887.73,-658.39 1850.42,-640.2"/>
<polygon fill="#5f5e5a" stroke="#5f5e5a" stroke-width="0.9" points="1851.49,-637.99 1844.12,-637.13 1849.34,-642.4 1851.49,-637.99"/>
</g>
<!-- Render_Tile_With_Dual_Cache -->
<g id="node27" class="node">
<title>Render_Tile_With_Dual_Cache</title>
<path fill="#faece7" stroke="black" d="M2438,-536C2438,-536 2258,-536 2258,-536 2252,-536 2246,-530 2246,-524 2246,-524 2246,-512 2246,-512 2246,-506 2252,-500 2258,-500 2258,-500 2438,-500 2438,-500 2444,-500 2450,-506 2450,-512 2450,-512 2450,-524 2450,-524 2450,-530 2444,-536 2438,-536"/>
<text text-anchor="middle" x="2348" y="-514.9" font-family="Helvetica,sans-Serif" font-size="12.00">Render_Tile_With_Dual_Cache</text>
</g>
<!-- Render_Tile_With_Dual_Cache&#45;&gt;Translate_Tile_Index -->
<g id="edge51" class="edge">
<title>Render_Tile_With_Dual_Cache&#45;&gt;Translate_Tile_Index</title>
<path fill="none" stroke="#5f5e5a" stroke-width="0.9" d="M2278.12,-499.95C2262.69,-496.78 2246.36,-493.88 2231,-492 2174.06,-485.03 1768.36,-496.06 1715,-475 1662.26,-454.19 1665.11,-423.99 1619,-391 1598.66,-376.44 1574.53,-362.35 1554.64,-351.48"/>
<polygon fill="#5f5e5a" stroke="#5f5e5a" stroke-width="0.9" points="1555.66,-349.25 1548.34,-348.07 1553.33,-353.56 1555.66,-349.25"/>
</g>
<!-- Render_Tile_With_Dual_Cache&#45;&gt;Lookup_Monster_Tile_Attributes -->
<g id="edge50" class="edge">
<title>Render_Tile_With_Dual_Cache&#45;&gt;Lookup_Monster_Tile_Attributes</title>
<path fill="none" stroke="#5f5e5a" stroke-width="0.9" d="M2284.4,-499.93C2251.01,-490.6 2209.55,-478.43 2173,-466 2147.82,-457.44 2120.19,-446.77 2097.51,-437.67"/>
<polygon fill="#5f5e5a" stroke="#5f5e5a" stroke-width="0.9" points="2098.35,-435.37 2090.95,-435.03 2096.52,-439.92 2098.35,-435.37"/>
</g>
<!-- Render_Tile_With_Dual_Cache&#45;&gt;Decode_And_Render_MonsterEntity_Tile_With_Blit -->
<g id="edge49" class="edge">
<title>Render_Tile_With_Dual_Cache&#45;&gt;Decode_And_Render_MonsterEntity_Tile_With_Blit</title>
<path fill="none" stroke="#5f5e5a" stroke-width="0.9" d="M2348,-499.76C2348,-483.86 2348,-460.09 2348,-442.28"/>
<polygon fill="#5f5e5a" stroke="#5f5e5a" stroke-width="0.9" points="2350.45,-442.05 2348,-435.05 2345.55,-442.05 2350.45,-442.05"/>
</g>
<!-- Render_Tile_With_Border_Check -->
<g id="node28" class="node">
<title>Render_Tile_With_Border_Check</title>
<path fill="#faece7" stroke="black" d="M1855.5,-738C1855.5,-738 1662.5,-738 1662.5,-738 1656.5,-738 1650.5,-732 1650.5,-726 1650.5,-726 1650.5,-714 1650.5,-714 1650.5,-708 1656.5,-702 1662.5,-702 1662.5,-702 1855.5,-702 1855.5,-702 1861.5,-702 1867.5,-708 1867.5,-714 1867.5,-714 1867.5,-726 1867.5,-726 1867.5,-732 1861.5,-738 1855.5,-738"/>
<text text-anchor="middle" x="1759" y="-716.9" font-family="Helvetica,sans-Serif" font-size="12.00">Render_Tile_With_Border_Check</text>
</g>
<!-- Render_Tile_With_Border_Check&#45;&gt;Lookup_Monster_Tile_Attributes -->
<g id="edge53" class="edge">
<title>Render_Tile_With_Border_Check&#45;&gt;Lookup_Monster_Tile_Attributes</title>
<path fill="none" stroke="#5f5e5a" stroke-width="0.9" d="M1724.94,-701.81C1711.49,-693.38 1697.1,-682 1688,-668 1645.06,-601.95 1616.86,-552.76 1667,-492 1700.52,-451.38 1834.66,-432.81 1934.79,-424.48"/>
<polygon fill="#5f5e5a" stroke="#5f5e5a" stroke-width="0.9" points="1935.17,-426.91 1941.94,-423.9 1934.77,-422.02 1935.17,-426.91"/>
</g>
<!-- Render_Tile_With_Border_Check&#45;&gt;Render_Tile_Neighborhood_Cell -->
<g id="edge54" class="edge">
<title>Render_Tile_With_Border_Check&#45;&gt;Render_Tile_Neighborhood_Cell</title>
<path fill="none" stroke="#5f5e5a" stroke-width="0.9" d="M1767.71,-701.76C1775.88,-685.57 1788.17,-661.24 1797.22,-643.33"/>
<polygon fill="#5f5e5a" stroke="#5f5e5a" stroke-width="0.9" points="1799.42,-644.4 1800.39,-637.05 1795.05,-642.19 1799.42,-644.4"/>
</g>
<!-- Spawn_Boss_Explosion_Ring -->
<g id="node49" class="node">
<title>Spawn_Boss_Explosion_Ring</title>
<path fill="#fcebeb" stroke="black" d="M1399.5,-637C1399.5,-637 1228.5,-637 1228.5,-637 1222.5,-637 1216.5,-631 1216.5,-625 1216.5,-625 1216.5,-613 1216.5,-613 1216.5,-607 1222.5,-601 1228.5,-601 1228.5,-601 1399.5,-601 1399.5,-601 1405.5,-601 1411.5,-607 1411.5,-613 1411.5,-613 1411.5,-625 1411.5,-625 1411.5,-631 1405.5,-637 1399.5,-637"/>
<text text-anchor="middle" x="1314" y="-615.9" font-family="Helvetica,sans-Serif" font-size="12.00">Spawn_Boss_Explosion_Ring</text>
</g>
<!-- Render_Tile_With_Border_Check&#45;&gt;Spawn_Boss_Explosion_Ring -->
<g id="edge55" class="edge">
<title>Render_Tile_With_Border_Check&#45;&gt;Spawn_Boss_Explosion_Ring</title>
<path fill="none" stroke="#5f5e5a" stroke-width="0.9" d="M1650.29,-709.37C1584.49,-701.82 1499.39,-688.98 1426,-668 1401.3,-660.94 1374.83,-649.78 1353.83,-639.99"/>
<polygon fill="#5f5e5a" stroke="#5f5e5a" stroke-width="0.9" points="1354.87,-637.77 1347.49,-637.01 1352.78,-642.21 1354.87,-637.77"/>
</g>
<!-- Render_Tile_And_Update_Cache -->
<g id="node29" class="node">
<title>Render_Tile_And_Update_Cache</title>
<path fill="#faece7" stroke="black" d="M2685,-536C2685,-536 2491,-536 2491,-536 2485,-536 2479,-530 2479,-524 2479,-524 2479,-512 2479,-512 2479,-506 2485,-500 2491,-500 2491,-500 2685,-500 2685,-500 2691,-500 2697,-506 2697,-512 2697,-512 2697,-524 2697,-524 2697,-530 2691,-536 2685,-536"/>
<text text-anchor="middle" x="2588" y="-514.9" font-family="Helvetica,sans-Serif" font-size="12.00">Render_Tile_And_Update_Cache</text>
</g>
<!-- Render_Tile_And_Update_Cache&#45;&gt;Translate_Tile_Index -->
<g id="edge58" class="edge">
<title>Render_Tile_And_Update_Cache&#45;&gt;Translate_Tile_Index</title>
<path fill="none" stroke="#5f5e5a" stroke-width="0.9" d="M2513.5,-499.97C2497.57,-496.86 2480.78,-493.97 2465,-492 2227.9,-462.34 2162.99,-509.28 1928,-466 1857.36,-452.99 1663.29,-384.63 1568.5,-350.47"/>
<polygon fill="#5f5e5a" stroke="#5f5e5a" stroke-width="0.9" points="1569.27,-348.14 1561.85,-348.07 1567.61,-352.75 1569.27,-348.14"/>
</g>
<!-- Render_Tile_And_Update_Cache&#45;&gt;Lookup_Monster_Tile_Attributes -->
<g id="edge57" class="edge">
<title>Render_Tile_And_Update_Cache&#45;&gt;Lookup_Monster_Tile_Attributes</title>
<path fill="none" stroke="#5f5e5a" stroke-width="0.9" d="M2510.81,-499.94C2495.67,-496.98 2479.88,-494.17 2465,-492 2336.07,-473.22 2299.85,-495.76 2173,-466 2145.38,-459.52 2115.71,-448.08 2092.43,-438"/>
<polygon fill="#5f5e5a" stroke="#5f5e5a" stroke-width="0.9" points="2093.13,-435.63 2085.74,-435.06 2091.16,-440.12 2093.13,-435.63"/>
</g>
<!-- Render_Tile_And_Update_Cache&#45;&gt;Decode_And_Render_MonsterEntity_Tile_With_Blit -->
<g id="edge56" class="edge">
<title>Render_Tile_And_Update_Cache&#45;&gt;Decode_And_Render_MonsterEntity_Tile_With_Blit</title>
<path fill="none" stroke="#5f5e5a" stroke-width="0.9" d="M2546.74,-499.98C2504.93,-482.73 2440.28,-456.07 2396.15,-437.86"/>
<polygon fill="#5f5e5a" stroke="#5f5e5a" stroke-width="0.9" points="2396.93,-435.53 2389.52,-435.13 2395.06,-440.06 2396.93,-435.53"/>
</g>
<!-- Dungeon_Static_Tile_Cached_Drawer -->
<g id="node30" class="node">
<title>Dungeon_Static_Tile_Cached_Drawer</title>
<path fill="#fbeaf0" stroke="black" d="M1091,-738C1091,-738 867,-738 867,-738 861,-738 855,-732 855,-726 855,-726 855,-714 855,-714 855,-708 861,-702 867,-702 867,-702 1091,-702 1091,-702 1097,-702 1103,-708 1103,-714 1103,-714 1103,-726 1103,-726 1103,-732 1097,-738 1091,-738"/>
<text text-anchor="middle" x="979" y="-716.9" font-family="Helvetica,sans-Serif" font-size="12.00">Dungeon_Static_Tile_Cached_Drawer</text>
</g>
<!-- Dungeon_Static_Tile_Cached_Drawer&#45;&gt;decode_packed_6bit_tile -->
<g id="edge28" class="edge">
<title>Dungeon_Static_Tile_Cached_Drawer&#45;&gt;decode_packed_6bit_tile</title>
<path fill="none" stroke="#5f5e5a" stroke-width="0.9" d="M872.98,-701.96C773.86,-679.26 641,-628.44 641,-519 641,-519 641,-519 641,-373 641,-339.56 643.71,-323.33 671,-304 779.17,-227.36 1155.11,-333.64 1266,-261 1303.97,-236.13 1313.75,-206.58 1298,-164 1295.45,-157.11 1291.21,-150.59 1286.52,-144.83"/>
<polygon fill="#5f5e5a" stroke="#5f5e5a" stroke-width="0.9" points="1288.17,-143 1281.72,-139.34 1284.48,-146.22 1288.17,-143"/>
</g>
<!-- copy_8x8_within_vram -->
<g id="node31" class="node">
<title>copy_8x8_within_vram</title>
<path fill="#fbeaf0" stroke="black" d="M1000,-637C1000,-637 862,-637 862,-637 856,-637 850,-631 850,-625 850,-625 850,-613 850,-613 850,-607 856,-601 862,-601 862,-601 1000,-601 1000,-601 1006,-601 1012,-607 1012,-613 1012,-613 1012,-625 1012,-625 1012,-631 1006,-637 1000,-637"/>
<text text-anchor="middle" x="931" y="-615.9" font-family="Helvetica,sans-Serif" font-size="12.00">copy_8x8_within_vram</text>
</g>
<!-- Dungeon_Static_Tile_Cached_Drawer&#45;&gt;copy_8x8_within_vram -->
<g id="edge27" class="edge">
<title>Dungeon_Static_Tile_Cached_Drawer&#45;&gt;copy_8x8_within_vram</title>
<path fill="none" stroke="#5f5e5a" stroke-width="0.9" d="M970.64,-701.76C962.86,-685.71 951.2,-661.67 942.54,-643.8"/>
<polygon fill="#5f5e5a" stroke="#5f5e5a" stroke-width="0.9" points="944.52,-642.28 939.27,-637.05 940.11,-644.41 944.52,-642.28"/>
</g>
<!-- clear_8x8_tile_vram -->
<g id="node32" class="node">
<title>clear_8x8_tile_vram</title>
<path fill="#fbeaf0" stroke="black" d="M1175,-637C1175,-637 1053,-637 1053,-637 1047,-637 1041,-631 1041,-625 1041,-625 1041,-613 1041,-613 1041,-607 1047,-601 1053,-601 1053,-601 1175,-601 1175,-601 1181,-601 1187,-607 1187,-613 1187,-613 1187,-625 1187,-625 1187,-631 1181,-637 1175,-637"/>
<text text-anchor="middle" x="1114" y="-615.9" font-family="Helvetica,sans-Serif" font-size="12.00">clear_8x8_tile_vram</text>
</g>
<!-- Dungeon_Static_Tile_Cached_Drawer&#45;&gt;clear_8x8_tile_vram -->
<g id="edge26" class="edge">
<title>Dungeon_Static_Tile_Cached_Drawer&#45;&gt;clear_8x8_tile_vram</title>
<path fill="none" stroke="#5f5e5a" stroke-width="0.9" d="M1002.21,-701.98C1025.1,-685.19 1060.16,-659.48 1084.9,-641.34"/>
<polygon fill="#5f5e5a" stroke="#5f5e5a" stroke-width="0.9" points="1086.45,-643.24 1090.64,-637.13 1083.55,-639.29 1086.45,-643.24"/>
</g>
<!-- Render_Sword_Overlay -->
<g id="node33" class="node">
<title>Render_Sword_Overlay</title>
<path fill="#eeedfe" stroke="black" d="M3327.5,-536C3327.5,-536 3186.5,-536 3186.5,-536 3180.5,-536 3174.5,-530 3174.5,-524 3174.5,-524 3174.5,-512 3174.5,-512 3174.5,-506 3180.5,-500 3186.5,-500 3186.5,-500 3327.5,-500 3327.5,-500 3333.5,-500 3339.5,-506 3339.5,-512 3339.5,-512 3339.5,-524 3339.5,-524 3339.5,-530 3333.5,-536 3327.5,-536"/>
<text text-anchor="middle" x="3257" y="-514.9" font-family="Helvetica,sans-Serif" font-size="12.00">Render_Sword_Overlay</text>
</g>
<!-- Sword_Overlay_EntryPoint -->
<g id="node34" class="node">
<title>Sword_Overlay_EntryPoint</title>
<path fill="#eeedfe" stroke="black" d="M3518.5,-435C3518.5,-435 3359.5,-435 3359.5,-435 3353.5,-435 3347.5,-429 3347.5,-423 3347.5,-423 3347.5,-411 3347.5,-411 3347.5,-405 3353.5,-399 3359.5,-399 3359.5,-399 3518.5,-399 3518.5,-399 3524.5,-399 3530.5,-405 3530.5,-411 3530.5,-411 3530.5,-423 3530.5,-423 3530.5,-429 3524.5,-435 3518.5,-435"/>
<text text-anchor="middle" x="3439" y="-413.9" font-family="Helvetica,sans-Serif" font-size="12.00">Sword_Overlay_EntryPoint</text>
</g>
<!-- Render_Sword_Overlay&#45;&gt;Sword_Overlay_EntryPoint -->
<g id="edge16" class="edge">
<title>Render_Sword_Overlay&#45;&gt;Sword_Overlay_EntryPoint</title>
<path fill="none" stroke="#5f5e5a" stroke-width="0.9" d="M3288.29,-499.98C3319.54,-482.98 3367.61,-456.83 3401.03,-438.65"/>
<polygon fill="#5f5e5a" stroke="#5f5e5a" stroke-width="0.9" points="3402.53,-440.63 3407.51,-435.13 3400.19,-436.32 3402.53,-440.63"/>
</g>
<!-- CalculateSpriteBitmask -->
<g id="node36" class="node">
<title>CalculateSpriteBitmask</title>
<path fill="#eeedfe" stroke="black" d="M3113.5,-348C3113.5,-348 2972.5,-348 2972.5,-348 2966.5,-348 2960.5,-342 2960.5,-336 2960.5,-336 2960.5,-324 2960.5,-324 2960.5,-318 2966.5,-312 2972.5,-312 2972.5,-312 3113.5,-312 3113.5,-312 3119.5,-312 3125.5,-318 3125.5,-324 3125.5,-324 3125.5,-336 3125.5,-336 3125.5,-342 3119.5,-348 3113.5,-348"/>
<text text-anchor="middle" x="3043" y="-326.9" font-family="Helvetica,sans-Serif" font-size="12.00">CalculateSpriteBitmask</text>
</g>
<!-- Sword_Overlay_EntryPoint&#45;&gt;CalculateSpriteBitmask -->
<g id="edge17" class="edge">
<title>Sword_Overlay_EntryPoint&#45;&gt;CalculateSpriteBitmask</title>
<path fill="none" stroke="#5f5e5a" stroke-width="0.9" d="M3368.07,-398.99C3356.37,-396.26 3344.35,-393.51 3333,-391 3265.95,-376.16 3189.92,-360.47 3132.53,-348.86"/>
<polygon fill="#5f5e5a" stroke="#5f5e5a" stroke-width="0.9" points="3132.98,-346.45 3125.63,-347.46 3132.01,-351.25 3132.98,-346.45"/>
</g>
<!-- Clear_Tile_Cache_Around_Hero -->
<g id="node37" class="node">
<title>Clear_Tile_Cache_Around_Hero</title>
<path fill="#eeedfe" stroke="black" d="M3525.5,-348C3525.5,-348 3338.5,-348 3338.5,-348 3332.5,-348 3326.5,-342 3326.5,-336 3326.5,-336 3326.5,-324 3326.5,-324 3326.5,-318 3332.5,-312 3338.5,-312 3338.5,-312 3525.5,-312 3525.5,-312 3531.5,-312 3537.5,-318 3537.5,-324 3537.5,-324 3537.5,-336 3537.5,-336 3537.5,-342 3531.5,-348 3525.5,-348"/>
<text text-anchor="middle" x="3432" y="-326.9" font-family="Helvetica,sans-Serif" font-size="12.00">Clear_Tile_Cache_Around_Hero</text>
</g>
<!-- Sword_Overlay_EntryPoint&#45;&gt;Clear_Tile_Cache_Around_Hero -->
<g id="edge18" class="edge">
<title>Sword_Overlay_EntryPoint&#45;&gt;Clear_Tile_Cache_Around_Hero</title>
<path fill="none" stroke="#5f5e5a" stroke-width="0.9" d="M3437.58,-398.8C3436.56,-386.36 3435.16,-369.36 3434.02,-355.5"/>
<polygon fill="#5f5e5a" stroke="#5f5e5a" stroke-width="0.9" points="3436.43,-354.95 3433.41,-348.18 3431.55,-355.35 3436.43,-354.95"/>
</g>
<!-- Copy4x4TilesFromScreenToShadowBuffer -->
<g id="node38" class="node">
<title>Copy4x4TilesFromScreenToShadowBuffer</title>
<path fill="#eeedfe" stroke="black" d="M3827.5,-348C3827.5,-348 3578.5,-348 3578.5,-348 3572.5,-348 3566.5,-342 3566.5,-336 3566.5,-336 3566.5,-324 3566.5,-324 3566.5,-318 3572.5,-312 3578.5,-312 3578.5,-312 3827.5,-312 3827.5,-312 3833.5,-312 3839.5,-318 3839.5,-324 3839.5,-324 3839.5,-336 3839.5,-336 3839.5,-342 3833.5,-348 3827.5,-348"/>
<text text-anchor="middle" x="3703" y="-326.9" font-family="Helvetica,sans-Serif" font-size="12.00">Copy4x4TilesFromScreenToShadowBuffer</text>
</g>
<!-- Sword_Overlay_EntryPoint&#45;&gt;Copy4x4TilesFromScreenToShadowBuffer -->
<g id="edge19" class="edge">
<title>Sword_Overlay_EntryPoint&#45;&gt;Copy4x4TilesFromScreenToShadowBuffer</title>
<path fill="none" stroke="#5f5e5a" stroke-width="0.9" d="M3492.11,-398.9C3535.79,-384.84 3597.68,-364.91 3643.12,-350.28"/>
<polygon fill="#5f5e5a" stroke="#5f5e5a" stroke-width="0.9" points="3644.07,-352.55 3649.98,-348.07 3642.56,-347.88 3644.07,-352.55"/>
</g>
<!-- render_hero_sword -->
<g id="node35" class="node">
<title>render_hero_sword</title>
<path fill="#eeedfe" stroke="black" d="M3497.5,-536C3497.5,-536 3380.5,-536 3380.5,-536 3374.5,-536 3368.5,-530 3368.5,-524 3368.5,-524 3368.5,-512 3368.5,-512 3368.5,-506 3374.5,-500 3380.5,-500 3380.5,-500 3497.5,-500 3497.5,-500 3503.5,-500 3509.5,-506 3509.5,-512 3509.5,-512 3509.5,-524 3509.5,-524 3509.5,-530 3503.5,-536 3497.5,-536"/>
<text text-anchor="middle" x="3439" y="-514.9" font-family="Helvetica,sans-Serif" font-size="12.00">render_hero_sword</text>
</g>
<!-- render_hero_sword&#45;&gt;Sword_Overlay_EntryPoint -->
<g id="edge22" class="edge">
<title>render_hero_sword&#45;&gt;Sword_Overlay_EntryPoint</title>
<path fill="none" stroke="#5f5e5a" stroke-width="0.9" d="M3439,-499.76C3439,-483.86 3439,-460.09 3439,-442.28"/>
<polygon fill="#5f5e5a" stroke="#5f5e5a" stroke-width="0.9" points="3441.45,-442.05 3439,-435.05 3436.55,-442.05 3441.45,-442.05"/>
</g>
<!-- Copy_Hero_Frame_To_VRAM -->
<g id="node39" class="node">
<title>Copy_Hero_Frame_To_VRAM</title>
<path fill="#eeedfe" stroke="black" d="M3306.5,-435C3306.5,-435 3135.5,-435 3135.5,-435 3129.5,-435 3123.5,-429 3123.5,-423 3123.5,-423 3123.5,-411 3123.5,-411 3123.5,-405 3129.5,-399 3135.5,-399 3135.5,-399 3306.5,-399 3306.5,-399 3312.5,-399 3318.5,-405 3318.5,-411 3318.5,-411 3318.5,-423 3318.5,-423 3318.5,-429 3312.5,-435 3306.5,-435"/>
<text text-anchor="middle" x="3221" y="-413.9" font-family="Helvetica,sans-Serif" font-size="12.00">Copy_Hero_Frame_To_VRAM</text>
</g>
<!-- render_hero_sword&#45;&gt;Copy_Hero_Frame_To_VRAM -->
<g id="edge20" class="edge">
<title>render_hero_sword&#45;&gt;Copy_Hero_Frame_To_VRAM</title>
<path fill="none" stroke="#5f5e5a" stroke-width="0.9" d="M3401.52,-499.98C3363.78,-482.84 3305.54,-456.39 3265.48,-438.2"/>
<polygon fill="#5f5e5a" stroke="#5f5e5a" stroke-width="0.9" points="3266.1,-435.79 3258.72,-435.13 3264.08,-440.25 3266.1,-435.79"/>
</g>
<!-- Flush_Ui_Element_If_Dirty -->
<g id="node41" class="node">
<title>Flush_Ui_Element_If_Dirty</title>
<path fill="#eeedfe" stroke="black" d="M3761,-435C3761,-435 3605,-435 3605,-435 3599,-435 3593,-429 3593,-423 3593,-423 3593,-411 3593,-411 3593,-405 3599,-399 3605,-399 3605,-399 3761,-399 3761,-399 3767,-399 3773,-405 3773,-411 3773,-411 3773,-423 3773,-423 3773,-429 3767,-435 3761,-435"/>
<text text-anchor="middle" x="3683" y="-413.9" font-family="Helvetica,sans-Serif" font-size="12.00">Flush_Ui_Element_If_Dirty</text>
</g>
<!-- render_hero_sword&#45;&gt;Flush_Ui_Element_If_Dirty -->
<g id="edge21" class="edge">
<title>render_hero_sword&#45;&gt;Flush_Ui_Element_If_Dirty</title>
<path fill="none" stroke="#5f5e5a" stroke-width="0.9" d="M3480.95,-499.98C3523.45,-482.73 3589.18,-456.07 3634.05,-437.86"/>
<polygon fill="#5f5e5a" stroke="#5f5e5a" stroke-width="0.9" points="3635.22,-440.03 3640.79,-435.13 3633.38,-435.49 3635.22,-440.03"/>
</g>
<!-- Copy_Hero_Frame_To_VRAM&#45;&gt;Copy_Tile_To_VRAM -->
<g id="edge23" class="edge">
<title>Copy_Hero_Frame_To_VRAM&#45;&gt;Copy_Tile_To_VRAM</title>
<path fill="none" stroke="#5f5e5a" stroke-width="0.9" d="M3222.01,-398.8C3222.74,-386.36 3223.74,-369.36 3224.56,-355.5"/>
<polygon fill="#5f5e5a" stroke="#5f5e5a" stroke-width="0.9" points="3227.02,-355.31 3224.99,-348.18 3222.13,-355.02 3227.02,-355.31"/>
</g>
<!-- Blit32x32SpriteToVram -->
<g id="node42" class="node">
<title>Blit32x32SpriteToVram</title>
<path fill="#eeedfe" stroke="black" d="M4019.5,-348C4019.5,-348 3880.5,-348 3880.5,-348 3874.5,-348 3868.5,-342 3868.5,-336 3868.5,-336 3868.5,-324 3868.5,-324 3868.5,-318 3874.5,-312 3880.5,-312 3880.5,-312 4019.5,-312 4019.5,-312 4025.5,-312 4031.5,-318 4031.5,-324 4031.5,-324 4031.5,-336 4031.5,-336 4031.5,-342 4025.5,-348 4019.5,-348"/>
<text text-anchor="middle" x="3950" y="-326.9" font-family="Helvetica,sans-Serif" font-size="12.00">Blit32x32SpriteToVram</text>
</g>
<!-- Flush_Ui_Element_If_Dirty&#45;&gt;Blit32x32SpriteToVram -->
<g id="edge24" class="edge">
<title>Flush_Ui_Element_If_Dirty&#45;&gt;Blit32x32SpriteToVram</title>
<path fill="none" stroke="#5f5e5a" stroke-width="0.9" d="M3736.71,-398.9C3780.89,-384.84 3843.48,-364.91 3889.43,-350.28"/>
<polygon fill="#5f5e5a" stroke="#5f5e5a" stroke-width="0.9" points="3890.45,-352.53 3896.38,-348.07 3888.96,-347.86 3890.45,-352.53"/>
</g>
<!-- Animate_Water_Cavern5 -->
<g id="node43" class="node">
<title>Animate_Water_Cavern5</title>
<path fill="#faeeda" stroke="black" d="M178,-738C178,-738 28,-738 28,-738 22,-738 16,-732 16,-726 16,-726 16,-714 16,-714 16,-708 22,-702 28,-702 28,-702 178,-702 178,-702 184,-702 190,-708 190,-714 190,-714 190,-726 190,-726 190,-732 184,-738 178,-738"/>
<text text-anchor="middle" x="103" y="-716.9" font-family="Helvetica,sans-Serif" font-size="12.00">Animate_Water_Cavern5</text>
</g>
<!-- Animate_Gold_Magma_Cavern6 -->
<g id="node44" class="node">
<title>Animate_Gold_Magma_Cavern6</title>
<path fill="#faeeda" stroke="black" d="M423,-738C423,-738 231,-738 231,-738 225,-738 219,-732 219,-726 219,-726 219,-714 219,-714 219,-708 225,-702 231,-702 231,-702 423,-702 423,-702 429,-702 435,-708 435,-714 435,-714 435,-726 435,-726 435,-732 429,-738 423,-738"/>
<text text-anchor="middle" x="327" y="-716.9" font-family="Helvetica,sans-Serif" font-size="12.00">Animate_Gold_Magma_Cavern6</text>
</g>
<!-- get_random -->
<g id="node50" class="node">
<title>get_random</title>
<path fill="#fcebeb" stroke="black" d="M1316.5,-536C1316.5,-536 1241.5,-536 1241.5,-536 1235.5,-536 1229.5,-530 1229.5,-524 1229.5,-524 1229.5,-512 1229.5,-512 1229.5,-506 1235.5,-500 1241.5,-500 1241.5,-500 1316.5,-500 1316.5,-500 1322.5,-500 1328.5,-506 1328.5,-512 1328.5,-512 1328.5,-524 1328.5,-524 1328.5,-530 1322.5,-536 1316.5,-536"/>
<text text-anchor="middle" x="1279" y="-514.9" font-family="Helvetica,sans-Serif" font-size="12.00">get_random</text>
</g>
<!-- Animate_Gold_Magma_Cavern6&#45;&gt;get_random -->
<g id="edge59" class="edge">
<title>Animate_Gold_Magma_Cavern6&#45;&gt;get_random</title>
<path fill="none" stroke="#5f5e5a" stroke-width="0.9" d="M407.6,-701.98C421.71,-699.18 436.26,-696.41 450,-694 527.44,-680.39 548.72,-687.09 625,-668 721.14,-643.94 739.07,-617.91 835,-593 972.02,-557.42 1137.46,-535.14 1222.48,-525.15"/>
<polygon fill="#5f5e5a" stroke="#5f5e5a" stroke-width="0.9" points="1222.78,-527.58 1229.45,-524.34 1222.22,-522.72 1222.78,-527.58"/>
</g>
<!-- Animate_Hot_Cavern7 -->
<g id="node45" class="node">
<title>Animate_Hot_Cavern7</title>
<path fill="#faeeda" stroke="black" d="M611.5,-738C611.5,-738 476.5,-738 476.5,-738 470.5,-738 464.5,-732 464.5,-726 464.5,-726 464.5,-714 464.5,-714 464.5,-708 470.5,-702 476.5,-702 476.5,-702 611.5,-702 611.5,-702 617.5,-702 623.5,-708 623.5,-714 623.5,-714 623.5,-726 623.5,-726 623.5,-732 617.5,-738 611.5,-738"/>
<text text-anchor="middle" x="544" y="-716.9" font-family="Helvetica,sans-Serif" font-size="12.00">Animate_Hot_Cavern7</text>
</g>
<!-- Animate_Thorn_Cavern8 -->
<g id="node46" class="node">
<title>Animate_Thorn_Cavern8</title>
<path fill="#faeeda" stroke="black" d="M813.5,-738C813.5,-738 664.5,-738 664.5,-738 658.5,-738 652.5,-732 652.5,-726 652.5,-726 652.5,-714 652.5,-714 652.5,-708 658.5,-702 664.5,-702 664.5,-702 813.5,-702 813.5,-702 819.5,-702 825.5,-708 825.5,-714 825.5,-714 825.5,-726 825.5,-726 825.5,-732 819.5,-738 813.5,-738"/>
<text text-anchor="middle" x="739" y="-716.9" font-family="Helvetica,sans-Serif" font-size="12.00">Animate_Thorn_Cavern8</text>
</g>
<!-- Process_Dirty_Tile_With_Animation -->
<g id="node47" class="node">
<title>Process_Dirty_Tile_With_Animation</title>
<path fill="#faeeda" stroke="black" d="M814.5,-848C814.5,-848 607.5,-848 607.5,-848 601.5,-848 595.5,-842 595.5,-836 595.5,-836 595.5,-824 595.5,-824 595.5,-818 601.5,-812 607.5,-812 607.5,-812 814.5,-812 814.5,-812 820.5,-812 826.5,-818 826.5,-824 826.5,-824 826.5,-836 826.5,-836 826.5,-842 820.5,-848 814.5,-848"/>
<text text-anchor="middle" x="711" y="-826.9" font-family="Helvetica,sans-Serif" font-size="12.00">Process_Dirty_Tile_With_Animation</text>
</g>
<!-- Process_Dirty_Tile_With_Animation&#45;&gt;Render_Tile_With_Border_Check -->
<g id="edge61" class="edge">
<title>Process_Dirty_Tile_With_Animation&#45;&gt;Render_Tile_With_Border_Check</title>
<path fill="none" stroke="#5f5e5a" stroke-width="0.9" d="M826.65,-817.08C1028.28,-796.3 1441.82,-753.69 1643.4,-732.91"/>
<polygon fill="#5f5e5a" stroke="#5f5e5a" stroke-width="0.9" points="1643.77,-735.34 1650.48,-732.18 1643.27,-730.46 1643.77,-735.34"/>
</g>
<!-- Process_Dirty_Tile_With_Animation&#45;&gt;Dungeon_Static_Tile_Cached_Drawer -->
<g id="edge60" class="edge">
<title>Process_Dirty_Tile_With_Animation&#45;&gt;Dungeon_Static_Tile_Cached_Drawer</title>
<path fill="none" stroke="#5f5e5a" stroke-width="0.9" d="M753.47,-811.89C801.49,-792.53 879.57,-761.07 930.1,-740.71"/>
<polygon fill="#5f5e5a" stroke="#5f5e5a" stroke-width="0.9" points="931.16,-742.92 936.73,-738.03 929.32,-738.38 931.16,-742.92"/>
</g>
<!-- Process_Dirty_Tile_With_Animation&#45;&gt;Animate_Water_Cavern5 -->
<g id="edge62" class="edge">
<title>Process_Dirty_Tile_With_Animation&#45;&gt;Animate_Water_Cavern5</title>
<path fill="none" stroke="#5f5e5a" stroke-width="0.9" stroke-dasharray="5,2" d="M595.39,-825.83C491.46,-820.51 335.54,-806.39 205,-769 182.18,-762.46 158.09,-751.35 139.05,-741.46"/>
<polygon fill="#5f5e5a" stroke="#5f5e5a" stroke-width="0.9" points="140.13,-739.26 132.8,-738.16 137.85,-743.59 140.13,-739.26"/>
<text text-anchor="middle" x="298.5" y="-779.8" font-family="Times,serif" font-size="9.00">fn&#45;ptr table</text>
</g>
<!-- Process_Dirty_Tile_With_Animation&#45;&gt;Animate_Gold_Magma_Cavern6 -->
<g id="edge63" class="edge">
<title>Process_Dirty_Tile_With_Animation&#45;&gt;Animate_Gold_Magma_Cavern6</title>
<path fill="none" stroke="#5f5e5a" stroke-width="0.9" stroke-dasharray="5,2" d="M622.26,-811.96C571.36,-801.36 506.54,-786.43 450,-769 424.08,-761.01 395.85,-750.15 372.97,-740.78"/>
<polygon fill="#5f5e5a" stroke="#5f5e5a" stroke-width="0.9" points="373.77,-738.46 366.36,-738.06 371.9,-742.99 373.77,-738.46"/>
<text text-anchor="middle" x="539.5" y="-779.8" font-family="Times,serif" font-size="9.00">fn&#45;ptr table</text>
</g>
<!-- Process_Dirty_Tile_With_Animation&#45;&gt;Animate_Hot_Cavern7 -->
<g id="edge64" class="edge">
<title>Process_Dirty_Tile_With_Animation&#45;&gt;Animate_Hot_Cavern7</title>
<path fill="none" stroke="#5f5e5a" stroke-width="0.9" stroke-dasharray="5,2" d="M684.54,-811.89C655.22,-792.93 607.94,-762.35 576.42,-741.97"/>
<polygon fill="#5f5e5a" stroke="#5f5e5a" stroke-width="0.9" points="577.55,-739.78 570.34,-738.03 574.89,-743.89 577.55,-739.78"/>
<text text-anchor="middle" x="668.5" y="-779.8" font-family="Times,serif" font-size="9.00">fn&#45;ptr table</text>
</g>
<!-- Process_Dirty_Tile_With_Animation&#45;&gt;Animate_Thorn_Cavern8 -->
<g id="edge65" class="edge">
<title>Process_Dirty_Tile_With_Animation&#45;&gt;Animate_Thorn_Cavern8</title>
<path fill="none" stroke="#5f5e5a" stroke-width="0.9" stroke-dasharray="5,2" d="M715.5,-811.65C720.15,-793.7 727.46,-765.52 732.69,-745.35"/>
<polygon fill="#5f5e5a" stroke="#5f5e5a" stroke-width="0.9" points="735.13,-745.7 734.51,-738.31 730.38,-744.47 735.13,-745.7"/>
<text text-anchor="middle" x="750.5" y="-779.8" font-family="Times,serif" font-size="9.00">fn&#45;ptr table</text>
</g>
<!-- Boss_Explosions_Renderer -->
<g id="node48" class="node">
<title>Boss_Explosions_Renderer</title>
<path fill="#fcebeb" stroke="black" d="M1611.5,-637C1611.5,-637 1452.5,-637 1452.5,-637 1446.5,-637 1440.5,-631 1440.5,-625 1440.5,-625 1440.5,-613 1440.5,-613 1440.5,-607 1446.5,-601 1452.5,-601 1452.5,-601 1611.5,-601 1611.5,-601 1617.5,-601 1623.5,-607 1623.5,-613 1623.5,-613 1623.5,-625 1623.5,-625 1623.5,-631 1617.5,-637 1611.5,-637"/>
<text text-anchor="middle" x="1532" y="-615.9" font-family="Helvetica,sans-Serif" font-size="12.00">Boss_Explosions_Renderer</text>
</g>
<!-- Boss_Explosions_Renderer&#45;&gt;CalculateSpriteBitmask -->
<g id="edge73" class="edge">
<title>Boss_Explosions_Renderer&#45;&gt;CalculateSpriteBitmask</title>
<path fill="none" stroke="#5f5e5a" stroke-width="0.9" d="M1539.73,-600.84C1563.33,-548.5 1633.19,-394.21 1638,-391 1692.73,-354.49 2651.55,-336.92 2953.04,-332.28"/>
<polygon fill="#5f5e5a" stroke="#5f5e5a" stroke-width="0.9" points="2953.51,-334.73 2960.47,-332.17 2953.43,-329.83 2953.51,-334.73"/>
</g>
<!-- Spawn_Boss_Explosion_Ring&#45;&gt;get_random -->
<g id="edge52" class="edge">
<title>Spawn_Boss_Explosion_Ring&#45;&gt;get_random</title>
<path fill="none" stroke="#5f5e5a" stroke-width="0.9" d="M1307.9,-600.76C1302.23,-584.71 1293.73,-560.67 1287.41,-542.8"/>
<polygon fill="#5f5e5a" stroke="#5f5e5a" stroke-width="0.9" points="1289.67,-541.83 1285.03,-536.05 1285.05,-543.46 1289.67,-541.83"/>
</g>
<!-- Refresh_Dirty_Tiles -->
<g id="node51" class="node">
<title>Refresh_Dirty_Tiles</title>
<path fill="#f1efe8" stroke="black" d="M2346,-949C2346,-949 2232,-949 2232,-949 2226,-949 2220,-943 2220,-937 2220,-937 2220,-925 2220,-925 2220,-919 2226,-913 2232,-913 2232,-913 2346,-913 2346,-913 2352,-913 2358,-919 2358,-925 2358,-925 2358,-937 2358,-937 2358,-943 2352,-949 2346,-949"/>
<text text-anchor="middle" x="2289" y="-927.9" font-family="Helvetica,sans-Serif" font-size="12.00">Refresh_Dirty_Tiles</text>
</g>
<!-- Refresh_Dirty_Tiles&#45;&gt;Render_Top_Left_Corner_Entity -->
<g id="edge70" class="edge">
<title>Refresh_Dirty_Tiles&#45;&gt;Render_Top_Left_Corner_Entity</title>
<path fill="none" stroke="#5f5e5a" stroke-width="0.9" d="M2311.6,-912.86C2397.94,-847.39 2706.95,-613.07 2802.58,-540.55"/>
<polygon fill="#5f5e5a" stroke="#5f5e5a" stroke-width="0.9" points="2804.21,-542.39 2808.3,-536.21 2801.25,-538.49 2804.21,-542.39"/>
</g>
<!-- Refresh_Dirty_Tiles&#45;&gt;Render_Top_Right_Corner_Entity -->
<g id="edge71" class="edge">
<title>Refresh_Dirty_Tiles&#45;&gt;Render_Top_Right_Corner_Entity</title>
<path fill="none" stroke="#5f5e5a" stroke-width="0.9" d="M2289,-912.83C2289,-893.09 2289,-859.7 2289,-831 2289,-831 2289,-831 2289,-618 2289,-602.53 2206.83,-563.16 2152.92,-538.98"/>
<polygon fill="#5f5e5a" stroke="#5f5e5a" stroke-width="0.9" points="2153.88,-536.73 2146.49,-536.11 2151.88,-541.2 2153.88,-536.73"/>
</g>
<!-- Refresh_Dirty_Tiles&#45;&gt;Render_Tile_With_Attribute_Cache -->
<g id="edge68" class="edge">
<title>Refresh_Dirty_Tiles&#45;&gt;Render_Tile_With_Attribute_Cache</title>
<path fill="none" stroke="#5f5e5a" stroke-width="0.9" d="M2251.7,-912.89C2237.6,-905.85 2221.67,-897.19 2208,-888 2140.39,-842.53 2069.71,-777.17 2034.59,-743.27"/>
<polygon fill="#5f5e5a" stroke="#5f5e5a" stroke-width="0.9" points="2036,-741.23 2029.27,-738.11 2032.59,-744.74 2036,-741.23"/>
</g>
<!-- Refresh_Dirty_Tiles&#45;&gt;Render_Tile_With_Dual_Cache -->
<g id="edge69" class="edge">
<title>Refresh_Dirty_Tiles&#45;&gt;Render_Tile_With_Dual_Cache</title>
<path fill="none" stroke="#5f5e5a" stroke-width="0.9" d="M2307.02,-912.87C2324.37,-894.45 2348,-863.41 2348,-831 2348,-831 2348,-831 2348,-618 2348,-592.55 2348,-563.42 2348,-543.38"/>
<polygon fill="#5f5e5a" stroke="#5f5e5a" stroke-width="0.9" points="2350.45,-543.17 2348,-536.17 2345.55,-543.17 2350.45,-543.17"/>
</g>
<!-- Refresh_Dirty_Tiles&#45;&gt;Render_Tile_And_Update_Cache -->
<g id="edge67" class="edge">
<title>Refresh_Dirty_Tiles&#45;&gt;Render_Tile_And_Update_Cache</title>
<path fill="none" stroke="#5f5e5a" stroke-width="0.9" d="M2334.62,-912.98C2367.83,-897.3 2407,-870.44 2407,-831 2407,-831 2407,-831 2407,-618 2407,-592.79 2423.37,-589.49 2444,-575 2452.17,-569.26 2455.68,-570.59 2465,-567 2488.94,-557.77 2515.45,-547.44 2537.72,-538.73"/>
<polygon fill="#5f5e5a" stroke="#5f5e5a" stroke-width="0.9" points="2538.86,-540.91 2544.49,-536.08 2537.07,-536.35 2538.86,-540.91"/>
</g>
<!-- Refresh_Dirty_Tiles&#45;&gt;render_hero_sword -->
<g id="edge72" class="edge">
<title>Refresh_Dirty_Tiles&#45;&gt;render_hero_sword</title>
<path fill="none" stroke="#5f5e5a" stroke-width="0.9" d="M2358.14,-929.72C2570.51,-927.93 3199,-915.52 3199,-831 3199,-831 3199,-831 3199,-618 3199,-545.48 3287.66,-596.3 3354,-567 3371.5,-559.27 3390.09,-549.03 3405.41,-539.99"/>
<polygon fill="#5f5e5a" stroke="#5f5e5a" stroke-width="0.9" points="3407.01,-541.89 3411.76,-536.2 3404.5,-537.68 3407.01,-541.89"/>
</g>
<!-- Refresh_Dirty_Tiles&#45;&gt;Process_Dirty_Tile_With_Animation -->
<g id="edge66" class="edge">
<title>Refresh_Dirty_Tiles&#45;&gt;Process_Dirty_Tile_With_Animation</title>
<path fill="none" stroke="#5f5e5a" stroke-width="0.9" d="M2219.93,-925.67C1975.41,-910.33 1148.73,-858.46 834.03,-838.72"/>
<polygon fill="#5f5e5a" stroke="#5f5e5a" stroke-width="0.9" points="833.83,-836.25 826.69,-838.26 833.52,-841.14 833.83,-836.25"/>
</g>
</g>
</svg>
